<svg width="1161" height="744" viewBox="0 0 1161 744" fill="none" xmlns="http://www.w3.org/2000/svg">
<g opacity="0.5">
<g opacity="0.2">
<path d="M58.7793 0.000209502C26.3164 0.00021234 0.000112463 26.3166 0.000115301 58.7794C0.000118139 91.2423 26.3164 117.559 58.7793 117.559C91.2421 117.559 117.558 91.2423 117.558 58.7794C117.558 26.3165 91.2421 0.000206664 58.7793 0.000209502Z" fill="#8997A9"/>
<path d="M121.003 104.604L94.5981 98.0959L101.112 71.6913L121.003 104.604Z" fill="#8997A9"/>
<path d="M83.3523 65.8919C87.1054 65.0106 89.4334 61.2537 88.5521 57.5006C87.6708 53.7475 83.9139 51.4194 80.1608 52.3007C76.4077 53.182 74.0796 56.939 74.961 60.6921C75.8423 64.4452 79.5992 66.7732 83.3523 65.8919Z" fill="white"/>
<path d="M60.2833 65.9935C64.0892 65.3782 66.6757 61.7941 66.0604 57.9882C65.4451 54.1823 61.861 51.5958 58.0551 52.2111C54.2491 52.8264 51.6626 56.4105 52.2779 60.2164C52.8932 64.0223 56.4773 66.6088 60.2833 65.9935Z" fill="white"/>
<path d="M38.1509 65.8919C41.904 65.0106 44.2321 61.2537 43.3508 57.5006C42.4694 53.7474 38.7125 51.4194 34.9594 52.3007C31.2063 53.182 28.8783 56.939 29.7596 60.6921C30.6409 64.4452 34.3978 66.7732 38.1509 65.8919Z" fill="white"/>
</g>
<g opacity="0.2">
<path d="M156.164 135.55C144.779 135.55 135.549 144.779 135.549 156.164C135.549 167.549 144.779 176.779 156.164 176.779C167.549 176.779 176.779 167.549 176.779 156.164C176.779 144.779 167.549 135.55 156.164 135.55Z" fill="#0059CC"/>
<path d="M177.987 172.236L168.726 169.953L171.011 160.693L177.987 172.236Z" fill="#0059CC"/>
<path d="M164.783 158.659C166.099 158.35 166.916 157.032 166.606 155.716C166.297 154.4 164.98 153.583 163.663 153.892C162.347 154.202 161.531 155.519 161.84 156.835C162.149 158.152 163.467 158.968 164.783 158.659Z" fill="white"/>
<path d="M156.692 158.695C158.027 158.479 158.934 157.222 158.718 155.887C158.502 154.553 157.245 153.645 155.911 153.861C154.576 154.077 153.669 155.334 153.885 156.669C154.1 158.004 155.357 158.911 156.692 158.695Z" fill="white"/>
<path d="M148.93 158.659C150.246 158.35 151.063 157.032 150.754 155.716C150.445 154.4 149.127 153.583 147.811 153.892C146.494 154.202 145.678 155.519 145.987 156.835C146.296 158.152 147.614 158.968 148.93 158.659Z" fill="white"/>
</g>
<g opacity="0.2">
<path d="M29.8268 212.537C18.4417 212.537 9.2122 221.767 9.2122 233.152C9.2122 244.537 18.4417 253.766 29.8268 253.766C41.212 253.766 50.4414 244.537 50.4414 233.152C50.4414 221.767 41.212 212.537 29.8268 212.537Z" fill="#338BFF"/>
<path d="M51.6493 249.223L42.3889 246.941L44.6734 237.68L51.6493 249.223Z" fill="#338BFF"/>
<path d="M38.4452 235.646C39.7615 235.337 40.5779 234.02 40.2689 232.703C39.9598 231.387 38.6422 230.571 37.3259 230.88C36.0096 231.189 35.1932 232.506 35.5023 233.823C35.8114 235.139 37.1289 235.955 38.4452 235.646Z" fill="white"/>
<path d="M30.3546 235.682C31.6894 235.466 32.5965 234.209 32.3807 232.874C32.1649 231.54 30.9079 230.632 29.5731 230.848C28.2383 231.064 27.3312 232.321 27.547 233.656C27.7628 234.991 29.0198 235.898 30.3546 235.682Z" fill="white"/>
<path d="M22.5924 235.646C23.9086 235.337 24.7251 234.02 24.416 232.703C24.1069 231.387 22.7893 230.571 21.4731 230.88C20.1568 231.189 19.3403 232.506 19.6494 233.823C19.9585 235.139 21.2761 235.955 22.5924 235.646Z" fill="white"/>
</g>
<g opacity="0.2">
<path d="M140.822 394C152.207 394 161.436 403.229 161.436 414.615C161.436 426 152.207 435.229 140.822 435.229C129.437 435.229 120.207 426 120.207 414.615C120.207 403.229 129.437 394 140.822 394Z" fill="#8997A9"/>
<path d="M118.999 430.686L128.26 428.404L125.975 419.143L118.999 430.686Z" fill="#8997A9"/>
<path d="M132.204 417.109C130.887 416.8 130.071 415.483 130.38 414.166C130.689 412.85 132.007 412.034 133.323 412.343C134.639 412.652 135.456 413.969 135.146 415.286C134.837 416.602 133.52 417.418 132.204 417.109Z" fill="white"/>
<path d="M140.294 417.145C138.959 416.929 138.052 415.672 138.268 414.337C138.484 413.003 139.741 412.095 141.076 412.311C142.41 412.527 143.318 413.784 143.102 415.119C142.886 416.454 141.629 417.361 140.294 417.145Z" fill="white"/>
<path d="M148.056 417.109C146.74 416.8 145.924 415.483 146.233 414.166C146.542 412.85 147.859 412.034 149.176 412.343C150.492 412.652 151.308 413.969 150.999 415.286C150.69 416.602 149.373 417.418 148.056 417.109Z" fill="white"/>
</g>
<g opacity="0.2">
<path d="M1000.82 550C1012.21 550 1021.44 559.229 1021.44 570.615C1021.44 582 1012.21 591.229 1000.82 591.229C989.437 591.229 980.208 582 980.208 570.615C980.208 559.229 989.437 550 1000.82 550Z" fill="#8997A9"/>
<path d="M979 586.686L988.26 584.404L985.976 575.143L979 586.686Z" fill="#8997A9"/>
<path d="M992.204 573.109C990.888 572.8 990.071 571.483 990.381 570.166C990.69 568.85 992.007 568.034 993.323 568.343C994.64 568.652 995.456 569.969 995.147 571.286C994.838 572.602 993.52 573.418 992.204 573.109Z" fill="white"/>
<path d="M1000.29 573.145C998.96 572.929 998.053 571.672 998.269 570.337C998.484 569.003 999.741 568.095 1001.08 568.311C1002.41 568.527 1003.32 569.784 1003.1 571.119C1002.89 572.454 1001.63 573.361 1000.29 573.145Z" fill="white"/>
<path d="M1008.06 573.109C1006.74 572.8 1005.92 571.483 1006.23 570.166C1006.54 568.85 1007.86 568.034 1009.18 568.343C1010.49 568.652 1011.31 569.969 1011 571.286C1010.69 572.602 1009.37 573.418 1008.06 573.109Z" fill="white"/>
</g>
<g opacity="0.2">
<path d="M169.994 693C184.077 693 195.494 704.417 195.494 718.5C195.494 732.583 184.077 744 169.994 744C155.911 744 144.494 732.583 144.494 718.5C144.494 704.417 155.911 693 169.994 693Z" fill="#8997A9"/>
<path d="M142.999 738.38L154.454 735.557L151.628 724.102L142.999 738.38Z" fill="#8997A9"/>
<path d="M159.332 721.586C157.704 721.203 156.694 719.574 157.076 717.945C157.458 716.317 159.088 715.307 160.716 715.69C162.345 716.072 163.355 717.702 162.972 719.33C162.59 720.958 160.96 721.968 159.332 721.586Z" fill="white"/>
<path d="M169.34 721.63C167.689 721.363 166.567 719.808 166.834 718.157C167.101 716.506 168.656 715.384 170.307 715.651C171.958 715.918 173.08 717.473 172.813 719.124C172.546 720.775 170.991 721.897 169.34 721.63Z" fill="white"/>
<path d="M178.942 721.586C177.314 721.203 176.304 719.574 176.686 717.945C177.068 716.317 178.698 715.307 180.326 715.69C181.955 716.072 182.965 717.702 182.582 719.33C182.2 720.958 180.57 721.968 178.942 721.586Z" fill="white"/>
</g>
<g opacity="0.2">
<path d="M1134.99 439C1149.08 439 1160.49 450.417 1160.49 464.5C1160.49 478.583 1149.08 490 1134.99 490C1120.91 490 1109.49 478.583 1109.49 464.5C1109.49 450.417 1120.91 439 1134.99 439Z" fill="#8997A9"/>
<path d="M1108 484.38L1119.46 481.557L1116.63 470.102L1108 484.38Z" fill="#8997A9"/>
<path d="M1124.33 467.586C1122.7 467.203 1121.69 465.574 1122.08 463.945C1122.46 462.317 1124.09 461.307 1125.72 461.69C1127.35 462.072 1128.36 463.702 1127.97 465.33C1127.59 466.958 1125.96 467.968 1124.33 467.586Z" fill="white"/>
<path d="M1134.34 467.63C1132.69 467.363 1131.57 465.808 1131.83 464.157C1132.1 462.506 1133.66 461.384 1135.31 461.651C1136.96 461.918 1138.08 463.473 1137.81 465.124C1137.55 466.775 1135.99 467.897 1134.34 467.63Z" fill="white"/>
<path d="M1143.94 467.586C1142.31 467.203 1141.3 465.574 1141.69 463.945C1142.07 462.317 1143.7 461.307 1145.33 461.69C1146.96 462.072 1147.97 463.702 1147.58 465.33C1147.2 466.958 1145.57 467.968 1143.94 467.586Z" fill="white"/>
</g>
<g opacity="0.15">
<path d="M1101.22 17.7663C1133.68 17.7663 1160 44.0827 1160 76.5455C1160 109.008 1133.68 135.325 1101.22 135.325C1068.76 135.325 1042.44 109.008 1042.44 76.5455C1042.44 44.0827 1068.76 17.7663 1101.22 17.7663Z" fill="#8997A9"/>
<path d="M1039 122.37L1065.4 115.862L1058.89 89.4575L1039 122.37Z" fill="#8997A9"/>
<path d="M1076.65 83.658C1072.9 82.7767 1070.57 79.0198 1071.45 75.2667C1072.33 71.5136 1076.09 69.1855 1079.84 70.0668C1083.59 70.9482 1085.92 74.7051 1085.04 78.4582C1084.16 82.2113 1080.4 84.5393 1076.65 83.658Z" fill="white"/>
<path d="M1099.72 83.7597C1095.91 83.1444 1093.33 79.5602 1093.94 75.7543C1094.56 71.9484 1098.14 69.3619 1101.95 69.9772C1105.75 70.5925 1108.34 74.1766 1107.72 77.9825C1107.11 81.7885 1103.52 84.375 1099.72 83.7597Z" fill="white"/>
<path d="M1121.85 83.658C1118.1 82.7767 1115.77 79.0198 1116.65 75.2667C1117.53 71.5136 1121.29 69.1855 1125.04 70.0668C1128.79 70.9482 1131.12 74.7051 1130.24 78.4582C1129.36 82.2113 1125.6 84.5393 1121.85 83.658Z" fill="white"/>
</g>
<g opacity="0.1">
<path d="M992.605 189.126C1006.09 182.152 1011.37 165.565 1004.4 152.076C997.428 138.588 980.84 133.307 967.352 140.281C953.864 147.254 948.583 163.842 955.556 177.33C962.53 190.818 979.117 196.099 992.605 189.126Z" fill="#338BFF"/>
<path d="M1007.53 188.148L995.419 184.242L999.32 172.137L1007.53 188.148Z" fill="#338BFF"/>
<path d="M990.835 167.975C992.501 167.704 993.633 166.134 993.362 164.468C993.092 162.802 991.522 161.67 989.856 161.941C988.189 162.211 987.058 163.781 987.328 165.447C987.598 167.114 989.169 168.245 990.835 167.975Z" fill="white"/>
<path d="M981.127 167.918C982.77 167.53 983.787 165.884 983.399 164.241C983.011 162.598 981.365 161.581 979.722 161.968C978.079 162.356 977.062 164.003 977.45 165.646C977.838 167.289 979.484 168.306 981.127 167.918Z" fill="white"/>
<path d="M971.237 167.918C972.88 167.53 973.897 165.884 973.509 164.241C973.121 162.598 971.475 161.581 969.832 161.968C968.189 162.356 967.172 164.003 967.56 165.646C967.948 167.289 969.594 168.306 971.237 167.918Z" fill="white"/>
</g>
<g opacity="0.15">
<path d="M77.3852 493C55.0809 493 36.9998 511.081 36.9998 533.385C36.9998 555.69 55.0809 573.771 77.3852 573.771C99.6894 573.771 117.771 555.69 117.771 533.385C117.771 511.081 99.6894 493 77.3852 493Z" fill="#338BFF"/>
<path d="M120.136 564.87L101.995 560.399L106.47 542.257L120.136 564.87Z" fill="#338BFF"/>
<path d="M94.2688 538.272C96.8474 537.667 98.4469 535.086 97.8414 532.507C97.2359 529.928 94.6546 528.329 92.076 528.934C89.4973 529.54 87.8978 532.121 88.5034 534.7C89.1089 537.278 91.6901 538.878 94.2688 538.272Z" fill="white"/>
<path d="M78.4181 538.342C81.0331 537.92 82.8102 535.457 82.3874 532.842C81.9647 530.227 79.5021 528.45 76.8872 528.873C74.2723 529.296 72.4952 531.758 72.9179 534.373C73.3407 536.988 75.8032 538.765 78.4181 538.342Z" fill="white"/>
<path d="M63.2117 538.273C65.7903 537.667 67.3899 535.086 66.7843 532.507C66.1788 529.929 63.5975 528.329 61.0189 528.935C58.4403 529.54 56.8407 532.121 57.4463 534.7C58.0518 537.279 60.6331 538.878 63.2117 538.273Z" fill="white"/>
</g>
<g opacity="0.15">
<path d="M1060 666C1038.46 666 1021 683.461 1021 705C1021 726.539 1038.46 744 1060 744C1081.54 744 1099 726.539 1099 705C1099 683.461 1081.54 666 1060 666Z" fill="#338BFF"/>
<path d="M1101.29 735.405L1083.77 731.087L1088.09 713.567L1101.29 735.405Z" fill="#338BFF"/>
<path d="M1076.3 709.719C1078.79 709.135 1080.34 706.642 1079.75 704.152C1079.17 701.662 1076.68 700.117 1074.19 700.702C1071.7 701.286 1070.15 703.779 1070.74 706.269C1071.32 708.76 1073.81 710.304 1076.3 709.719Z" fill="white"/>
<path d="M1061 709.787C1063.52 709.379 1065.24 707.001 1064.83 704.476C1064.42 701.95 1062.04 700.234 1059.52 700.642C1056.99 701.051 1055.28 703.429 1055.69 705.954C1056.09 708.479 1058.47 710.195 1061 709.787Z" fill="white"/>
<path d="M1046.31 709.72C1048.8 709.135 1050.35 706.642 1049.76 704.152C1049.18 701.662 1046.69 700.117 1044.2 700.702C1041.7 701.287 1040.16 703.779 1040.75 706.27C1041.33 708.76 1043.82 710.304 1046.31 709.72Z" fill="white"/>
</g>
<g opacity="0.15">
<path d="M1071.16 250.416C1062.85 246.119 1059.59 235.898 1063.89 227.586C1068.18 219.275 1078.41 216.021 1086.72 220.318C1095.03 224.615 1098.28 234.836 1093.99 243.147C1089.69 251.459 1079.47 254.713 1071.16 250.416Z" fill="#338BFF"/>
<path d="M1061.96 249.813L1069.42 247.406L1067.02 239.948L1061.96 249.813Z" fill="#338BFF"/>
<path d="M1072.25 237.382C1071.22 237.216 1070.52 236.248 1070.69 235.222C1070.86 234.195 1071.82 233.497 1072.85 233.664C1073.88 233.831 1074.58 234.798 1074.41 235.825C1074.24 236.852 1073.27 237.549 1072.25 237.382Z" fill="white"/>
<path d="M1078.23 237.347C1077.22 237.108 1076.59 236.094 1076.83 235.082C1077.07 234.069 1078.08 233.442 1079.1 233.681C1080.11 233.92 1080.73 234.935 1080.5 235.947C1080.26 236.96 1079.24 237.586 1078.23 237.347Z" fill="white"/>
<path d="M1084.32 237.347C1083.31 237.108 1082.68 236.094 1082.92 235.082C1083.16 234.069 1084.18 233.442 1085.19 233.681C1086.2 233.92 1086.83 234.935 1086.59 235.947C1086.35 236.96 1085.34 237.586 1084.32 237.347Z" fill="white"/>
</g>
</g>
</svg>
